<svg xmlns="http://www.w3.org/2000/svg" viewBox="0 0 512 512" role="img" aria-labelledby="title desc">
  <title id="title">Hanzu rubber duck mascot</title>
  <desc id="desc">Angular yellow rubber duck character with red diagnostic highlights and technical frame details.</desc>
  <defs>
    <linearGradient id="body" x1="94" x2="424" y1="94" y2="420" gradientUnits="userSpaceOnUse">
      <stop offset="0" stop-color="#fff06a"/>
      <stop offset=".52" stop-color="#ffcc00"/>
      <stop offset="1" stop-color="#f28b00"/>
    </linearGradient>
    <linearGradient id="beak" x1="338" x2="470" y1="160" y2="232" gradientUnits="userSpaceOnUse">
      <stop offset="0" stop-color="#ff5a2f"/>
      <stop offset="1" stop-color="#ff0033"/>
    </linearGradient>
    <filter id="glow" x="-35%" y="-35%" width="170%" height="170%">
      <feGaussianBlur stdDeviation="9" result="blur"/>
      <feColorMatrix in="blur" type="matrix" values="1 0 0 0 1 0 .82 0 0 .42 0 0 0 0 .06 0 0 0 .7 0" result="gold"/>
      <feMerge>
        <feMergeNode in="gold"/>
        <feMergeNode in="SourceGraphic"/>
      </feMerge>
    </filter>
    <clipPath id="cut">
      <path d="M76 282c0-54 42-99 103-114 11-54 58-95 115-95 63 0 113 47 120 107l66 25-22 58-67 10c-26 56-93 96-174 96H111l-35-35z"/>
    </clipPath>
  </defs>
  <rect width="512" height="512" fill="#08080d"/>
  <path fill="none" stroke="#ff0033" stroke-opacity=".55" stroke-width="6" d="M44 116V44h72M396 44h72v72M468 396v72h-72M116 468H44v-72"/>
  <path fill="none" stroke="#ffcc00" stroke-opacity=".35" stroke-width="3" d="M92 92h74M346 92h74M92 420h74M346 420h74"/>
  <g filter="url(#glow)">
    <path fill="url(#body)" d="M76 282c0-54 42-99 103-114 11-54 58-95 115-95 63 0 113 47 120 107l66 25-22 58-67 10c-26 56-93 96-174 96H111l-35-35z"/>
    <path fill="#fff8a6" fill-opacity=".64" d="M161 183c22-57 89-91 150-69 30 11 53 32 66 58-21-19-52-31-86-31-51 0-96 23-130 42z"/>
    <path fill="#b86400" fill-opacity=".22" d="M86 310c34 32 78 44 132 44 74 0 135-30 166-75-14 56-82 101-167 101H111l-35-35z"/>
    <path fill="url(#beak)" d="M392 176h57l31 29-22 58-73 10c11-28 13-65 7-97z"/>
    <path fill="#ffcc00" d="M101 279c-10 20-9 42 4 64l-29-9v-50z"/>
  </g>
  <g clip-path="url(#cut)">
    <path fill="none" stroke="#111119" stroke-opacity=".55" stroke-width="9" d="M126 294h184l46-32M129 330h108"/>
    <path fill="none" stroke="#ff0033" stroke-width="5" d="M182 239h88M178 258h58"/>
    <path fill="none" stroke="#fff6a8" stroke-opacity=".72" stroke-width="5" d="M204 121c40-27 101-22 139 15"/>
  </g>
  <circle cx="338" cy="153" r="31" fill="#111119"/>
  <circle cx="347" cy="143" r="9" fill="#ffcc00"/>
  <path fill="#111119" d="M405 214h73l-20 49-60 8c8-17 11-36 7-57z" opacity=".18"/>
  <path fill="none" stroke="#0a0a0f" stroke-linecap="round" stroke-width="9" d="M421 219h42"/>
  <path fill="none" stroke="#ff0033" stroke-width="4" d="M158 407h202l28-28M124 105h82l24-24M384 116h38"/>
  <path fill="#ff0033" d="M101 404h38v12h-38zM362 92h52v12h-52z"/>
  <path fill="#ffcc00" d="M397 397h18v18h-18zM91 116h18v18H91z"/>
</svg>
